<!--?xml version="1.0" encoding="utf-8"?-->
<!-- Generator: Adobe Illustrator 15.0.0, SVG Export Plug-In . SVG Version: 6.00 Build 0)  -->

<svg xmlns="http://www.w3.org/2000/svg" xmlns:xlink="http://www.w3.org/1999/xlink" width="200px" height="200px" viewBox="0 0 200 200">
<g>
	<path fill="#196425" stroke="#050505" stroke-miterlimit="10" d="M57.522,115.656c0,0-1.779-1.927-1.315-2.215
		s1.501-0.222,1.745-0.641c0.243-0.42-0.42-1.479-0.442-2.363c-0.022-0.883,1.105-0.795,1.016-1.502
		c-0.088-0.707-0.95-1.546-0.928-2.253c0.022-0.706,1.038-1.016,1.546-1.325c0.508-0.309,0.066-0.839-0.552-1.479
		c-0.619-0.641-0.531-0.929,0.154-0.993c0.685-0.066,1.038-0.686,0.596-1.326s-0.729-1.302-0.331-1.744
		c0.397-0.442,1.612-0.619,1.701-1.237c0.088-0.619-1.061-1.302-0.95-2.274c0.111-0.972,1.016-0.708,1.59-1.392
		c0.575-0.685-0.287-1.259-0.463-2.23c-0.177-0.972,0.619-1.26,1.17-1.855c0.552-0.597-0.463-1.679-0.729-2.319
		c-0.265-0.64,0.133-0.951,0.751-1.479c0.619-0.529,0.442-0.84,0.088-1.613c-0.354-0.772-0.685-1.06,0.199-1.523
		c0.884-0.463,1.061-0.994,0.619-1.855c-0.442-0.86-0.31-1.391,0.221-1.833s0.552-1.082,0.398-1.48
		c-0.155-0.397-1.281-1.171-0.861-1.7c0.419-0.53,1.392-0.399,1.06-1.193c-0.332-0.795-1.414-1.347-1.126-2.098
		c0.287-0.752,1.59-0.818,1.392-1.701c-0.199-0.883-1.347-1.302-1.126-2.186c0.221-0.884,1.259-0.818,1.524-1.546
		c0.265-0.729-0.928-1.591-1.171-2.342c-0.243-0.751,0.199-1.149,1.061-1.768c0.861-0.618,1.37-0.773,0.928-1.612
		s-1.348-1.678-0.641-2.54c0.707-0.862,1.679-0.928,1.237-2.209c-0.442-1.281-0.971-2.187-0.397-2.894
		c0.574-0.707,1.9-0.993,1.988-1.7c0.088-0.707-1.082-2.473-0.64-3.092c0.441-0.618,1.723-0.595,1.988-1.213
		c0.265-0.619-0.663-1.9-0.663-2.717s0.375-0.993,1.325-1.436c0.95-0.441,1.017-0.883,1.126-2.031
		c0.11-1.148,0.354-1.281,1.104-1.391c0.75-0.111,1.192-0.375,1.104-1.391c-0.088-1.017-0.199-1.614,0.619-1.9
		c0.817-0.288,1.325-0.508,1.281-1.347s0.066-1.48,1.083-2.143c1.016-0.663,1.479-0.883,1.479-0.883L60.56,118.494l-2.37-0.948
		L57.522,115.656z" id="path-0" style="position: relative;"></path>
	
		<path fill="#409F43" stroke="#050505" stroke-width="2.0853" stroke-linecap="round" stroke-linejoin="round" stroke-miterlimit="10" d="
		M123.339,178.258c0.06,0.178,0.238,8.774,1.602,11.443c1.363,2.667,7.353,2.549,9.486,1.601c2.135-0.948,2.135-3.617-0.296-4.388
		c-1.756-0.557-2.135-2.371-2.49-4.921c-0.356-2.55-0.356-5.04-0.356-5.04L123.339,178.258z" id="path-1" style="position: relative;"></path>
	
		<path fill="#409F43" stroke="#050505" stroke-width="2.0853" stroke-linecap="round" stroke-linejoin="round" stroke-miterlimit="10" d="
		M102.824,178.08c0,0,0.06,5.515,0.83,8.656c0.771,3.143,2.905,5.277,8.063,5.336c5.158,0.06,6.108-2.312,5.1-3.912
		c-1.008-1.602-3.201-0.356-4.15-3.855c-0.949-3.497-0.236-6.343-0.236-6.343L102.824,178.08z" id="path-2" style="position: relative;"></path>
	
		<path fill="#368E3B" stroke="#050505" stroke-width="2.0853" stroke-linecap="round" stroke-linejoin="round" stroke-miterlimit="10" d="
		M82.004,177.377c0,0-22.146-3.184-41.522-21.315c-19.377-18.13-27.681-39.446-29.065-53.286
		c-1.384-13.841,2.353-25.605,2.353-25.605s0.553,0.139,1.661,0.83c1.107,0.693,0.139,2.631,1.246,2.215s1.938-0.691,2.353,0.831
		c0.415,1.521,0.416,2.906,1.661,2.214c1.246-0.693,2.491-0.554,2.629,1.522s-0.138,3.322,1.8,3.045
		c1.938-0.277,2.353,0,2.768,2.491c0.415,2.492,0.692,3.322,2.076,2.768c1.384-0.553,2.076-0.553,2.491,1.385
		c0.415,1.937,0.139,3.321,1.661,3.321c1.522,0,2.491,0.001,2.63,1.247c0.139,1.246-0.139,3.044,1.107,2.906
		c1.246-0.138,1.661-0.554,2.214,0c0.553,0.554-0.415,3.044,1.384,2.907c1.799-0.139,2.214,0,2.63,1.66
		c0.415,1.66,0.138,3.599,1.384,3.044c1.246-0.553,1.799-0.553,2.215,0.693c0.416,1.245,0,3.459,1.107,3.183
		s1.799-0.969,2.353-0.138s0,2.49,1.107,2.352c1.107-0.137,1.799-1.245,2.491-0.275c0.692,0.969-0.416,2.63,0.831,2.353
		c1.246-0.276,1.799-2.077,2.63-0.969c0.831,1.107,0.692,0.969,1.661,1.661c0.969,0.691,1.522,0.138,1.66,0.553
		C61.658,119.385,81.588,177.791,82.004,177.377z" id="path-3" style="position: relative;"></path>
	
		<path fill="#649F3A" stroke="#050505" stroke-width="2.0853" stroke-linecap="round" stroke-linejoin="round" stroke-miterlimit="10" d="
		M76.882,36.063c0,0,0.276-0.139,0.83-3.322c0.554-3.183,2.63-5.951,5.813-5.813c3.184,0.138,4.844,4.014,6.505,4.291
		c1.661,0.276,5.951-1.522,8.72-2.352c2.768-0.831,4.429-1.247,4.844-2.492c0.415-1.246,1.107-5.952,4.567-6.367
		s6.09,2.907,7.889,4.984c1.8,2.075,3.737,3.044,10.381,1.245c6.645-1.799,27.128-6.228,36.401-9.688
		c9.273-3.46,10.104-3.044,11.211-4.983c1.107-1.938,2.768-2.768,4.29-1.799c1.523,0.968,1.246,1.522,3.599,1.246
		c2.354-0.278,5.537,1.8,6.645,6.643c1.106,4.844-1.522,11.212-1.522,11.212s1.66,2.49-0.555,8.304
		c-2.214,5.813-11.764,17.439-25.051,27.267c-13.287,9.826-14.395,14.117-13.426,16.469c0.969,2.354,18.408,51.349,18.132,68.374
		c-0.277,17.024-12.318,26.714-25.467,28.514c-13.148,1.798-41.661,0.275-53.01,0.137c-11.349-0.137-26.297-8.028-30.449-25.189
		c-4.152-17.162,8.581-49.688,8.442-62.56c-0.138-12.871,1.938-31.143,4.844-39.723C73.422,41.877,76.882,36.063,76.882,36.063z" id="path-4" style="position: relative;"></path>
	<path fill="#96BC33" stroke="#050505" stroke-miterlimit="10" d="M180.451,11.712c0,0,3.785-0.858,5.604,2.019
		c1.818,2.877,4.544,10.754-2.07,18.277s-14.389,15.096-20.649,19.236c-6.261,4.14-18.983,11.058-18.983,11.058
		s-8.987,4.189-12.976,5.301c-3.989,1.11-5.807,0.908-5.807,0.908s12.875-4.343,22.164-9.794
		c9.29-5.453,26.457-19.641,31.102-28.274c4.645-8.634,4.595-14.137,3.837-16.106C181.915,12.367,180.451,11.712,180.451,11.712z" id="path-5" style="position: relative;"></path>
	<path fill="#96BC33" stroke="#050505" stroke-miterlimit="10" d="M77.744,35.884c0,0-5.742,10.512-7.486,17.998
		c-1.743,7.484-3.333,17.535-3.64,25.124s-0.154,11.434-0.769,16.458s-4.256,19.484-5.589,25.176
		c-1.333,5.69-3.589,17.791-3.384,24.354c0.205,6.563,2.769,15.589,7.229,20.818c4.461,5.229,10.204,8.152,13.998,9.588
		c3.794,1.436,5.743,1.692,5.743,1.692s-11.28-6.103-15.023-11.076s-7.742-11.332-7.845-22.1
		c-0.102-10.768,4.22-25.642,6.271-33.743c2.051-8.101,2.6-15.326,3.113-22.914c0.513-7.589,0-22.152,1.795-30.868
		s3.999-16.305,4.769-18.15S77.744,35.884,77.744,35.884z" id="path-6" style="position: relative;"></path>
	<path fill="#1C243D" stroke="#050505" stroke-miterlimit="10" d="M76.495,33.8c-0.604,0.415-1.286,0.593-1.746,1.18
		c-0.274,0.35-0.327,0.829-0.339,1.25c-0.037,1.246-0.743,1.029-1.431,1.282c-0.611,0.226-0.773,0.979-0.732,1.539
		c0.043,0.594,0.843,1.813-0.292,2.145c-0.536,0.156-1.009,0.179-1.496,0.471c-0.089,0.052-0.174,0.162-0.163,0.273
		c0.081,0.764,0.168,1.479-0.14,2.207c-0.007,0.017-0.005,0.031-0.01,0.047c-0.551,0.505-1.805,0.531-2.248,1.25
		c-0.592,0.958,1.563,3.123,0.19,3.637c-0.757,0.284-1.437,0.353-1.694,1.251c-0.342,1.192,1.637,2.523,0.217,3.455
		c-1.287,0.843-2.242,1.171-1.47,2.974c0.419,0.979,1.04,1.969-0.363,2.788c-0.233,0.135-0.586,0.308-0.654,0.605
		c-0.099,0.431-0.029,0.761,0.071,1.192c0.176,0.76,1.183,1.258,0.919,2.126c-0.011,0.036-0.01,0.068-0.009,0.1
		c-0.673,0.606-1.78,0.696-2.172,1.58c-0.297,0.671,0.245,1.314,0.643,1.796c0.747,0.903,0.55,1.52-0.451,2.1
		c-0.219,0.126-0.483,0.435-0.531,0.688c-0.237,1.251,0.773,1.336,1.144,2.381c0.216,0.611-1.079,0.898-1.296,1.515
		c-0.239,0.678-0.046,1.036,0.505,1.458c1.517,1.161-0.346,1.235-0.582,2.056c-0.246,0.857,1.484,2.135,1.002,2.533
		c-0.085,0.07-0.112,0.154-0.104,0.235c-0.577,0.309-1.221,0.707-1.115,1.429c0.117,0.797,2.107,1.803-0.021,2.207
		c-0.672,0.128-1.036,0.956-0.773,1.57c0.254,0.591,1.281,1.472,0.551,1.87c-0.544,0.295-0.918,0.553-1.067,1.157
		c-0.042,0.17,0.049,0.294,0.172,0.355c0.173,0.324,0.376,0.606,0.605,0.9c1.031,1.324,0.081,1.489-0.618,1.872
		c-0.496,0.271-0.71,0.702-0.701,1.247c0.01,0.59,1.612,1.647,0.794,2.213c-0.586,0.407-1.384,0.521-1.606,1.347
		c-0.133,0.495-0.049,0.855,0.231,1.282c0.139,0.211,0.319,0.399,0.479,0.593c0.787,0.947-0.91,1.167-1.257,1.292
		c-0.479,0.172-0.571,0.611-0.632,1.052c-0.035,0.244,0.135,0.492,0.25,0.684c0.077,0.108,0.164,0.211,0.26,0.306
		c0.508,0.576-0.02,1.286-0.726,1.295c-0.154,0.002-0.25,0.094-0.289,0.206c-0.164,0.066-0.273,0.234-0.144,0.416
		c0.391,0.546,0.83,1.028,1.287,1.52c0.602,0.646-0.681,0.758-1.152,0.973c-0.792,0.362-0.842,1.109-0.396,1.762
		c0.23,0.337,1.513,1.385,0.587,1.629c-0.309,0.082-0.71,0.215-0.903,0.492c-0.747,1.078,0.271,1.954,0.613,2.98
		c-0.713,0.094-1.346,0.249-1.974,0.68c-0.138,0.095-0.218,0.272-0.124,0.43c0.464,0.77,1.005,1.471,1.375,2.292
		c0.168,0.372,0.719,0.063,0.553-0.307c-0.222-0.492-0.477-0.917-0.781-1.363c-0.75-1.102,0.392-1.046,1.341-1.146
		c0.216-0.022,0.343-0.177,0.31-0.395c-0.164-1.077-1.513-2.606,0.204-3.187c0.391-0.133,0.487-0.428,0.507-0.802
		c0.028-0.542-0.671-1.101-0.991-1.434c-1.064-1.104,1.1-1.427,1.809-1.785c0.141-0.071,0.221-0.294,0.124-0.43
		c-0.485-0.678-1.076-1.257-1.591-1.906c0.623-0.018,1.434-0.113,1.618-0.757c0.069-0.241,0.042-0.598-0.11-0.809
		c-0.217-0.304-1.533-1.545-0.612-1.875c1.295-0.463,2.276-1.079,1.16-2.422c-1.209-1.458,0.793-1.66,1.381-2.56
		c0.404-0.619-0.148-1.332-0.548-1.739c-1-1.018,1.106-1.662,1.402-2.435c0.309-0.805-0.891-1.878-1.222-2.481
		c0.257-0.489,0.955-0.722,1.377-0.995c0.111-0.072,0.203-0.217,0.153-0.355c-0.236-0.661-1.836-2.414-0.526-2.663
		c0.536-0.102,1.023-0.269,1.185-0.861c0.124-0.454,0.083-0.804-0.176-1.202c-0.121-0.185-0.29-0.336-0.447-0.489
		c-0.63-0.612,0.168-0.931,0.729-1.23c0.151-0.08,0.181-0.225,0.142-0.35c0.449-0.485,0.097-0.855-0.247-1.454
		c-0.248-0.432-1.13-1.239-0.065-1.527c0.157-0.041,0.419-0.162,0.493-0.323c0.281-0.621,0.069-1.216-0.347-1.723
		c-0.355-0.431-1.278-1.307-0.002-1.63c0.157-0.039,0.425-0.147,0.5-0.304c0.253-0.527,0.15-1.259-0.266-1.689
		c-0.551-0.571-1.24-1.461-0.044-2.018c0.352-0.163,0.569-0.353,0.789-0.667c0.431-0.616-0.137-1.403-0.499-1.862
		c-0.215-0.245-0.42-0.499-0.611-0.763c-0.572-0.802,0.492-1.16,0.898-1.348c0.457-0.212,0.834-0.421,1.159-0.812
		c0.093-0.111,0.094-0.242,0.048-0.35c0.077-0.262,0.129-0.505-0.007-0.782c-0.285-0.579-1.711-2.041-0.669-2.63
		c0.623-0.352,1.52-1.114,1.339-1.944c-0.22-1.01-1.702-2.613-0.415-3.375c0.594-0.352,1.195-0.485,1.577-1.108
		c0.384-0.625,0.109-1.447-0.185-2.036c-1.092-2.186,1.278-1.46,1.775-2.639c0.178-0.425,0.186-0.698,0.072-1.142
		c-0.155-0.607-1.692-2.168-0.066-2.622c0.893-0.249,1.517-0.21,1.811-1.22c0.032-0.111,0.003-0.203-0.054-0.271
		c0.087-0.425,0.079-0.839,0.04-1.326c-0.053-0.661,1.197-0.527,1.53-0.735c0.661-0.413,0.766-1.01,0.625-1.743
		c-0.174-0.904-0.085-1.76,1.007-1.955c0.253-0.044,0.663-0.109,0.79-0.385c0.194-0.425,0.295-0.565,0.189-1.045
		c-0.326-1.481,0.81-1.606,1.68-2.205C77.134,34.124,76.831,33.569,76.495,33.8z" id="path-7" style="position: relative;"></path>
	
		<path fill="#FDB515" stroke="#050505" stroke-width="1.1988" stroke-linecap="round" stroke-linejoin="round" stroke-miterlimit="10" d="
		M86.91,177.556c0,0-12.425-12.324-14.361-32.999c-1.935-20.676,2.195-43.128,13.852-53.573
		c12.731-11.407,32.287-12.527,45.527-2.852c13.239,9.676,23.832,33.306,24.443,51.231c0.611,17.924-3.463,28.618-7.231,32.59
		s-6.926,4.89-6.926,4.89s-7.536,1.527-20.573,1.323c-13.037-0.203-22.712-0.509-27.092-0.305
		C90.169,178.064,86.91,177.556,86.91,177.556z" id="path-8" style="position: relative;"></path>
	<path fill="#FFE47C" stroke="#050505" stroke-miterlimit="10" d="M134.412,177.479c0,0,12.676-12.247,13.966-31.905
		c1.288-19.658-3.976-40.067-13.106-50.596c-9.131-10.527-18.691-12.138-23.418-12.676c-4.727-0.537-5.371,0-5.371,0
		s13.75-2.363,24.386,5.371c10.634,7.735,19.12,22.881,22.88,37.813c3.761,14.933,2.686,26.533,0.43,34.913
		c-2.256,8.379-6.229,14.287-11.924,15.898C136.561,177.908,134.412,177.479,134.412,177.479z" id="path-9" style="position: relative;"></path>
	<path fill="#F0DAB9" stroke="#050505" stroke-miterlimit="10" d="M110.967,27.913c-0.07-0.207-0.31-0.271-0.47-0.193
		c-0.431-0.076-0.895-0.143-1.086,0.323c-0.438,0.026-0.906-0.041-1.113-0.253c0.136-0.145,0.134-0.449-0.116-0.552
		c-0.079-0.034-0.153-0.046-0.224-0.046c-0.121-0.028-0.257,0.023-0.336,0.13c-0.235,0.2-0.371,0.586-0.409,0.864
		c-0.096,0.701,0.108,1.47,0.763,1.83C109.404,30.8,111.548,29.629,110.967,27.913z" id="path-10" style="position: relative;"></path>
	<path fill="#4D2E57" stroke="#050505" stroke-miterlimit="10" d="M88.935,34.358c-0.224-0.2-0.49-0.205-0.706-0.106
		c-1.195-0.64-2.654,0.477-3.27,1.656c-0.721,1.384-0.347,3.233,0.89,4.186c1.203,0.927,2.792,0.709,3.743-0.46
		C90.986,37.918,90.5,35.748,88.935,34.358z" id="path-11" style="position: relative;"></path>
	<path fill="#4D2E57" stroke="#050505" stroke-miterlimit="10" d="M110.312,25.463c-0.1-0.146-0.253-0.255-0.473-0.276
		c-1.955-0.181-3.648,1.277-3.679,3.254c-0.021,1.399,1.16,2.453,2.448,2.718c1.396,0.288,2.808-0.372,3.415-1.668
		C112.832,27.762,111.85,26.201,110.312,25.463z" id="path-12" style="position: relative;"></path>
	
		<path fill="#649F3A" stroke="#050505" stroke-width="1.8768" stroke-linecap="round" stroke-linejoin="round" stroke-miterlimit="10" d="
		M79.045,86.691c0,0,4.703,9.407,8.296,13c3.593,3.593,8.772,3.91,9.935,3.857c1.163-0.054,2.801-2.22,4.333-1.69
		c1.532,0.527-0.527,3.012-0.898,3.382c-0.37,0.369-0.37,0.369-0.37,0.369s3.012,0.581,2.537,2.536
		c-0.476,1.956-3.488,1.004-3.488,1.004s1.745,2.696-0.105,3.488c-1.85,0.793-3.963-1.321-5.284-1.744s-5.231-0.95-12.207-3.646
		c-6.975-2.694-10.674-6.394-10.674-6.394" id="path-13" style="position: relative;"></path>
	
		<path fill="#649F3A" stroke="#050505" stroke-width="1.8768" stroke-linecap="round" stroke-linejoin="round" stroke-miterlimit="10" d="
		M141.717,92.293c0,0-3.805,8.243-7.715,11.414c-3.911,3.171-4.756,3.594-6.289,3.964c-1.532,0.369-3.963,0.105-4.861,1.109
		s0.158,1.902,0.793,2.22c0.634,0.316,1.215,0.369,1.215,0.369s-2.642,1.004-2.219,2.643c0.423,1.638,3.329,1.215,3.329,1.215
		s-1.585,2.062-0.37,3.224c1.216,1.163,3.593-1.109,4.545-2.271c0.95-1.164,3.962-3.065,6.71-4.65s5.602-3.488,8.666-6.288
		c3.065-2.801,4.333-5.549,4.333-5.549" id="path-14" style="position: relative;"></path>
	
		<path fill="none" stroke="#050505" stroke-width="1.8768" stroke-linecap="round" stroke-linejoin="round" stroke-miterlimit="10" d="
		M119.256,65.331c0,0,1.796-1.387,0.571-2.204c-1.225-0.816-3.591-0.081-3.265,2.693c0.326,2.775,5.55,4.571,14.446,2.368
		c8.896-2.205,28.159-12.325,38.769-21.222c10.61-8.896,16.569-15.997,17.875-19.752c1.306-3.754,1.143-6.855,1.143-6.855" id="path-15" style="position: relative;"></path>
</g>
</svg>
